<svg width="1200" height="900" viewBox="0 0 1200 900" fill="none" xmlns="http://www.w3.org/2000/svg">
  <rect width="1200" height="900" rx="42" fill="#E9FBFF"/>
  <rect x="64" y="64" width="1072" height="772" rx="34" fill="url(#g1)"/>
  <rect x="120" y="148" width="960" height="560" rx="30" fill="#FDFEFF"/>
  <rect x="168" y="210" width="864" height="46" rx="16" fill="#123C73"/>
  <rect x="168" y="296" width="250" height="312" rx="24" fill="#DAF4FF"/>
  <rect x="448" y="296" width="250" height="312" rx="24" fill="#DEF8EA"/>
  <rect x="728" y="296" width="250" height="312" rx="24" fill="#FFF0CC"/>
  <path d="M240 380H344" stroke="#123C73" stroke-width="18" stroke-linecap="round"/>
  <path d="M240 432H366" stroke="#123C73" stroke-width="18" stroke-linecap="round"/>
  <path d="M240 484H326" stroke="#123C73" stroke-width="18" stroke-linecap="round"/>
  <circle cx="573" cy="430" r="82" fill="#8BDFB4"/>
  <circle cx="573" cy="430" r="42" fill="#FF9B41"/>
  <path d="M796 522C840 434 888 380 950 350" stroke="#36BEE8" stroke-width="16" stroke-linecap="round"/>
  <text x="600" y="122" text-anchor="middle" fill="#123C73" font-size="64" font-family="Arial, sans-serif" font-weight="700">Classroom Demo Image</text>
  <text x="600" y="782" text-anchor="middle" fill="#123C73" font-size="32" font-family="Arial, sans-serif" font-weight="700">Save your real photo with the same file name to replace this</text>
  <defs>
    <linearGradient id="g1" x1="94" y1="80" x2="1096" y2="790" gradientUnits="userSpaceOnUse">
      <stop stop-color="#BDEFFF"/>
      <stop offset="0.52" stop-color="#FFFFFF"/>
      <stop offset="1" stop-color="#D8F5E6"/>
    </linearGradient>
  </defs>
</svg>
